<?xml version="1.0" standalone="no"?>
<svg xmlns:xlink="http://www.w3.org/1999/xlink" id="wave" style="transform:rotate(0deg); transition: 0.3s" viewBox="0 0 1440 180" version="1.1" xmlns="http://www.w3.org/2000/svg"><defs><linearGradient id="sw-gradient-0" x1="0" x2="0" y1="1" y2="0"><stop stop-color="rgba(40, 107, 201, 1)" offset="0%"/><stop stop-color="rgba(40, 107, 201, 1)" offset="100%"/></linearGradient></defs><path style="transform:translate(0, 0px); opacity:1" fill="url(#sw-gradient-0)" d="M0,36L17.1,36C34.3,36,69,36,103,33C137.1,30,171,24,206,42C240,60,274,102,309,105C342.9,108,377,72,411,63C445.7,54,480,72,514,84C548.6,96,583,102,617,90C651.4,78,686,48,720,36C754.3,24,789,30,823,36C857.1,42,891,48,926,45C960,42,994,30,1029,36C1062.9,42,1097,66,1131,63C1165.7,60,1200,30,1234,30C1268.6,30,1303,60,1337,63C1371.4,66,1406,42,1440,48C1474.3,54,1509,90,1543,90C1577.1,90,1611,54,1646,51C1680,48,1714,78,1749,81C1782.9,84,1817,60,1851,69C1885.7,78,1920,120,1954,120C1988.6,120,2023,78,2057,78C2091.4,78,2126,120,2160,126C2194.3,132,2229,102,2263,81C2297.1,60,2331,48,2366,63C2400,78,2434,120,2451,141L2468.6,162L2468.6,180L2451.4,180C2434.3,180,2400,180,2366,180C2331.4,180,2297,180,2263,180C2228.6,180,2194,180,2160,180C2125.7,180,2091,180,2057,180C2022.9,180,1989,180,1954,180C1920,180,1886,180,1851,180C1817.1,180,1783,180,1749,180C1714.3,180,1680,180,1646,180C1611.4,180,1577,180,1543,180C1508.6,180,1474,180,1440,180C1405.7,180,1371,180,1337,180C1302.9,180,1269,180,1234,180C1200,180,1166,180,1131,180C1097.1,180,1063,180,1029,180C994.3,180,960,180,926,180C891.4,180,857,180,823,180C788.6,180,754,180,720,180C685.7,180,651,180,617,180C582.9,180,549,180,514,180C480,180,446,180,411,180C377.1,180,343,180,309,180C274.3,180,240,180,206,180C171.4,180,137,180,103,180C68.6,180,34,180,17,180L0,180Z"/></svg>