<?xml version="1.0" standalone="no"?>
<svg xmlns:xlink="http://www.w3.org/1999/xlink" id="wave" style="transform:rotate(0deg); transition: 0.3s" viewBox="0 0 1440 440" version="1.1" xmlns="http://www.w3.org/2000/svg"><defs><linearGradient id="sw-gradient-0" x1="0" x2="0" y1="1" y2="0"><stop stop-color="rgba(255, 255, 255, 1)" offset="0%"/><stop stop-color="rgba(40, 107, 201, 1)" offset="100%"/></linearGradient></defs><path style="transform:translate(0, 0px); opacity:1" fill="url(#sw-gradient-0)" d="M0,176L48,176C96,176,192,176,288,212.7C384,249,480,323,576,308C672,293,768,191,864,161.3C960,132,1056,176,1152,176C1248,176,1344,132,1440,154C1536,176,1632,264,1728,286C1824,308,1920,264,2016,205.3C2112,147,2208,73,2304,36.7C2400,0,2496,0,2592,14.7C2688,29,2784,59,2880,102.7C2976,147,3072,205,3168,198C3264,191,3360,117,3456,139.3C3552,161,3648,279,3744,286C3840,293,3936,191,4032,161.3C4128,132,4224,176,4320,176C4416,176,4512,132,4608,110C4704,88,4800,88,4896,132C4992,176,5088,264,5184,308C5280,352,5376,352,5472,337.3C5568,323,5664,293,5760,293.3C5856,293,5952,323,6048,308C6144,293,6240,235,6336,198C6432,161,6528,147,6624,146.7C6720,147,6816,161,6864,168.7L6912,176L6912,440L6864,440C6816,440,6720,440,6624,440C6528,440,6432,440,6336,440C6240,440,6144,440,6048,440C5952,440,5856,440,5760,440C5664,440,5568,440,5472,440C5376,440,5280,440,5184,440C5088,440,4992,440,4896,440C4800,440,4704,440,4608,440C4512,440,4416,440,4320,440C4224,440,4128,440,4032,440C3936,440,3840,440,3744,440C3648,440,3552,440,3456,440C3360,440,3264,440,3168,440C3072,440,2976,440,2880,440C2784,440,2688,440,2592,440C2496,440,2400,440,2304,440C2208,440,2112,440,2016,440C1920,440,1824,440,1728,440C1632,440,1536,440,1440,440C1344,440,1248,440,1152,440C1056,440,960,440,864,440C768,440,672,440,576,440C480,440,384,440,288,440C192,440,96,440,48,440L0,440Z"/></svg>