<?xml version="1.0" standalone="no"?>
<svg xmlns:xlink="http://www.w3.org/1999/xlink" id="wave" style="transform:rotate(0deg); transition: 0.3s" viewBox="0 0 1440 490" version="1.1" xmlns="http://www.w3.org/2000/svg"><defs><linearGradient id="sw-gradient-0" x1="0" x2="0" y1="1" y2="0"><stop stop-color="rgba(40, 107, 201, 1)" offset="0%"/><stop stop-color="rgba(40, 107, 201, 1)" offset="100%"/></linearGradient></defs><path style="transform:translate(0, 0px); opacity:1" fill="url(#sw-gradient-0)" d="M0,343L26.7,294C53.3,245,107,147,160,130.7C213.3,114,267,180,320,228.7C373.3,278,427,310,480,277.7C533.3,245,587,147,640,114.3C693.3,82,747,114,800,147C853.3,180,907,212,960,228.7C1013.3,245,1067,245,1120,212.3C1173.3,180,1227,114,1280,73.5C1333.3,33,1387,16,1440,65.3C1493.3,114,1547,229,1600,245C1653.3,261,1707,180,1760,122.5C1813.3,65,1867,33,1920,81.7C1973.3,131,2027,261,2080,334.8C2133.3,408,2187,425,2240,375.7C2293.3,327,2347,212,2400,212.3C2453.3,212,2507,327,2560,326.7C2613.3,327,2667,212,2720,147C2773.3,82,2827,65,2880,49C2933.3,33,2987,16,3040,32.7C3093.3,49,3147,98,3200,114.3C3253.3,131,3307,114,3360,130.7C3413.3,147,3467,196,3520,196C3573.3,196,3627,147,3680,130.7C3733.3,114,3787,131,3813,138.8L3840,147L3840,490L3813.3,490C3786.7,490,3733,490,3680,490C3626.7,490,3573,490,3520,490C3466.7,490,3413,490,3360,490C3306.7,490,3253,490,3200,490C3146.7,490,3093,490,3040,490C2986.7,490,2933,490,2880,490C2826.7,490,2773,490,2720,490C2666.7,490,2613,490,2560,490C2506.7,490,2453,490,2400,490C2346.7,490,2293,490,2240,490C2186.7,490,2133,490,2080,490C2026.7,490,1973,490,1920,490C1866.7,490,1813,490,1760,490C1706.7,490,1653,490,1600,490C1546.7,490,1493,490,1440,490C1386.7,490,1333,490,1280,490C1226.7,490,1173,490,1120,490C1066.7,490,1013,490,960,490C906.7,490,853,490,800,490C746.7,490,693,490,640,490C586.7,490,533,490,480,490C426.7,490,373,490,320,490C266.7,490,213,490,160,490C106.7,490,53,490,27,490L0,490Z"/></svg>