<?xml version="1.0" standalone="no"?>
<svg xmlns:xlink="http://www.w3.org/1999/xlink" id="wave" style="transform:rotate(0deg); transition: 0.3s" viewBox="0 0 1440 100" version="1.1" xmlns="http://www.w3.org/2000/svg"><defs><linearGradient id="sw-gradient-0" x1="0" x2="0" y1="1" y2="0"><stop stop-color="rgba(40, 107, 201, 1)" offset="0%"/><stop stop-color="rgba(40, 107, 201, 1)" offset="100%"/></linearGradient></defs><path style="transform:translate(0, 0px); opacity:1" fill="url(#sw-gradient-0)" d="M0,10L10,15C20,20,40,30,60,33.3C80,37,100,33,120,36.7C140,40,160,50,180,58.3C200,67,220,73,240,68.3C260,63,280,47,300,35C320,23,340,17,360,25C380,33,400,57,420,56.7C440,57,460,33,480,28.3C500,23,520,37,540,36.7C560,37,580,23,600,30C620,37,640,63,660,63.3C680,63,700,37,720,23.3C740,10,760,10,780,16.7C800,23,820,37,840,38.3C860,40,880,30,900,30C920,30,940,40,960,36.7C980,33,1000,17,1020,18.3C1040,20,1060,40,1080,48.3C1100,57,1120,53,1140,50C1160,47,1180,43,1200,36.7C1220,30,1240,20,1260,18.3C1280,17,1300,23,1320,33.3C1340,43,1360,57,1380,58.3C1400,60,1420,50,1430,45L1440,40L1440,100L1430,100C1420,100,1400,100,1380,100C1360,100,1340,100,1320,100C1300,100,1280,100,1260,100C1240,100,1220,100,1200,100C1180,100,1160,100,1140,100C1120,100,1100,100,1080,100C1060,100,1040,100,1020,100C1000,100,980,100,960,100C940,100,920,100,900,100C880,100,860,100,840,100C820,100,800,100,780,100C760,100,740,100,720,100C700,100,680,100,660,100C640,100,620,100,600,100C580,100,560,100,540,100C520,100,500,100,480,100C460,100,440,100,420,100C400,100,380,100,360,100C340,100,320,100,300,100C280,100,260,100,240,100C220,100,200,100,180,100C160,100,140,100,120,100C100,100,80,100,60,100C40,100,20,100,10,100L0,100Z"/></svg>