<?xml version="1.0" standalone="no"?>
<svg xmlns:xlink="http://www.w3.org/1999/xlink" id="wave" style="transform:rotate(0deg); transition: 0.3s" viewBox="0 0 1440 260" version="1.1" xmlns="http://www.w3.org/2000/svg"><defs><linearGradient id="sw-gradient-0" x1="0" x2="0" y1="1" y2="0"><stop stop-color="rgba(40, 107, 201, 1)" offset="0%"/><stop stop-color="rgba(40, 107, 201, 1)" offset="100%"/></linearGradient></defs><path style="transform:translate(0, 0px); opacity:1" fill="url(#sw-gradient-0)" d="M0,52L17.1,52C34.3,52,69,52,103,47.7C137.1,43,171,35,206,60.7C240,87,274,147,309,151.7C342.9,156,377,104,411,91C445.7,78,480,104,514,121.3C548.6,139,583,147,617,130C651.4,113,686,69,720,52C754.3,35,789,43,823,52C857.1,61,891,69,926,65C960,61,994,43,1029,52C1062.9,61,1097,95,1131,91C1165.7,87,1200,43,1234,43.3C1268.6,43,1303,87,1337,91C1371.4,95,1406,61,1440,69.3C1474.3,78,1509,130,1543,130C1577.1,130,1611,78,1646,73.7C1680,69,1714,113,1749,117C1782.9,121,1817,87,1851,99.7C1885.7,113,1920,173,1954,173.3C1988.6,173,2023,113,2057,112.7C2091.4,113,2126,173,2160,182C2194.3,191,2229,147,2263,117C2297.1,87,2331,69,2366,91C2400,113,2434,173,2451,203.7L2468.6,234L2468.6,260L2451.4,260C2434.3,260,2400,260,2366,260C2331.4,260,2297,260,2263,260C2228.6,260,2194,260,2160,260C2125.7,260,2091,260,2057,260C2022.9,260,1989,260,1954,260C1920,260,1886,260,1851,260C1817.1,260,1783,260,1749,260C1714.3,260,1680,260,1646,260C1611.4,260,1577,260,1543,260C1508.6,260,1474,260,1440,260C1405.7,260,1371,260,1337,260C1302.9,260,1269,260,1234,260C1200,260,1166,260,1131,260C1097.1,260,1063,260,1029,260C994.3,260,960,260,926,260C891.4,260,857,260,823,260C788.6,260,754,260,720,260C685.7,260,651,260,617,260C582.9,260,549,260,514,260C480,260,446,260,411,260C377.1,260,343,260,309,260C274.3,260,240,260,206,260C171.4,260,137,260,103,260C68.6,260,34,260,17,260L0,260Z"/></svg>