<?xml version="1.0" standalone="no"?>
<svg xmlns:xlink="http://www.w3.org/1999/xlink" id="wave" style="transform:rotate(0deg); transition: 0.3s" viewBox="0 0 1440 260" version="1.1" xmlns="http://www.w3.org/2000/svg"><defs><linearGradient id="sw-gradient-0" x1="0" x2="0" y1="1" y2="0"><stop stop-color="rgba(40, 107, 201, 1)" offset="0%"/><stop stop-color="rgba(40, 107, 201, 1)" offset="100%"/></linearGradient></defs><path style="transform:translate(0, 0px); opacity:1" fill="url(#sw-gradient-0)" d="M0,52L20,69.3C40,87,80,121,120,125.7C160,130,200,104,240,91C280,78,320,78,360,78C400,78,440,78,480,91C520,104,560,130,600,134.3C640,139,680,121,720,99.7C760,78,800,52,840,69.3C880,87,920,147,960,182C1000,217,1040,225,1080,190.7C1120,156,1160,78,1200,73.7C1240,69,1280,139,1320,138.7C1360,139,1400,69,1440,34.7C1480,0,1520,0,1560,34.7C1600,69,1640,139,1680,156C1720,173,1760,139,1800,117C1840,95,1880,87,1920,95.3C1960,104,2000,130,2040,117C2080,104,2120,52,2160,30.3C2200,9,2240,17,2280,56.3C2320,95,2360,165,2400,169C2440,173,2480,113,2520,104C2560,95,2600,139,2640,134.3C2680,130,2720,78,2760,56.3C2800,35,2840,43,2860,47.7L2880,52L2880,260L2860,260C2840,260,2800,260,2760,260C2720,260,2680,260,2640,260C2600,260,2560,260,2520,260C2480,260,2440,260,2400,260C2360,260,2320,260,2280,260C2240,260,2200,260,2160,260C2120,260,2080,260,2040,260C2000,260,1960,260,1920,260C1880,260,1840,260,1800,260C1760,260,1720,260,1680,260C1640,260,1600,260,1560,260C1520,260,1480,260,1440,260C1400,260,1360,260,1320,260C1280,260,1240,260,1200,260C1160,260,1120,260,1080,260C1040,260,1000,260,960,260C920,260,880,260,840,260C800,260,760,260,720,260C680,260,640,260,600,260C560,260,520,260,480,260C440,260,400,260,360,260C320,260,280,260,240,260C200,260,160,260,120,260C80,260,40,260,20,260L0,260Z"/></svg>